name ./resultDataOpenSim/trcMotMarkerGrf/sub06/grf-12-04.mot
datacolumns 19
datarows 20
range 1.07200000 1.14800000
endheader

                time	     ground_force_vx	     ground_force_vy	     ground_force_vz	     ground_force_px	     ground_force_py	     ground_force_pz	   l_ground_force_vx	   l_ground_force_vy	   l_ground_force_vz	   l_ground_force_px	   l_ground_force_py	   l_ground_force_pz	     ground_torque_x	     ground_torque_y	     ground_torque_z	   l_ground_torque_x	   l_ground_torque_y	   l_ground_torque_z	
          1.07200000	          0.00000000	          0.00000000	          0.00000000	          0.00000000	          0.00000000	          0.00000000	        177.09705324	        725.41418552	         37.51956888	          0.03954387	         -0.02499900	         -0.07236572	          0.00000000	          0.00000000	          0.00000000	          0.00000000	         -3.20235431	          0.00000000	
          1.07600000	          0.00000000	          0.00000000	          0.00000000	          0.00000000	          0.00000000	          0.00000000	        180.53712352	        711.49619110	         36.46183471	          0.04046392	         -0.02499900	         -0.07195741	          0.00000000	          0.00000000	          0.00000000	          0.00000000	         -3.17546515	          0.00000000	
          1.08000000	          0.00000000	          0.00000000	          0.00000000	          0.00000000	          0.00000000	          0.00000000	        183.56986560	        695.48119430	         35.29466794	          0.04142611	         -0.02499880	         -0.07153655	          0.00000000	          0.00000000	          0.00000000	          0.00000000	         -3.12836514	          0.00000000	
          1.08400000	          0.00000000	          0.00000000	          0.00000000	          0.00000000	          0.00000000	          0.00000000	        186.15336758	        677.37050263	         34.02183212	          0.04242430	         -0.02499800	         -0.07109646	          0.00000000	          0.00000000	          0.00000000	          0.00000000	         -3.05901790	          0.00000000	
          1.08800000	          0.00000000	          0.00000000	          0.00000000	          0.00000000	          0.00000000	          0.00000000	        188.21956145	        657.07635360	         32.63819926	          0.04347136	         -0.02499800	         -0.07062482	          0.00000000	          0.00000000	          0.00000000	          0.00000000	         -2.96664399	          0.00000000	
          1.09200000	          0.00000000	          0.00000000	          0.00000000	          0.00000000	          0.00000000	          0.00000000	        189.64043890	        634.41672719	         31.14288584	          0.04456334	         -0.02499792	         -0.07013049	          0.00000000	          0.00000000	          0.00000000	          0.00000000	         -2.85197796	          0.00000000	
          1.09600000	          0.00000000	          0.00000000	          0.00000000	          0.00000000	          0.00000000	          0.00000000	        190.21661457	        609.14194288	         29.54552368	          0.04566563	         -0.02499700	         -0.06962888	          0.00000000	          0.00000000	          0.00000000	          0.00000000	         -2.71705114	          0.00000000	
          1.10000000	          0.00000000	          0.00000000	          0.00000000	          0.00000000	          0.00000000	          0.00000000	        189.69652575	        580.96629738	         27.84792426	          0.04675405	         -0.02499700	         -0.06912401	          0.00000000	          0.00000000	          0.00000000	          0.00000000	         -2.56450057	          0.00000000	
          1.10400000	          2.83935926	         26.06243576	          4.62427490	          0.65420687	          0.00000000	          0.06726219	        187.78618446	        549.61654386	         26.02585548	          0.04780262	         -0.02499604	         -0.06862445	          0.00000000	          0.41282493	          0.00000000	          0.00000000	         -2.39674671	          0.00000000	
          1.10800000	         -2.16428543	        167.06028310	         12.91964484	          0.66050563	          0.00000000	          0.06638427	        184.14239531	        514.85730516	         24.03840611	          0.04879391	         -0.02499600	         -0.06814369	          0.00000000	          0.10001296	          0.00000000	          0.00000000	         -2.21550049	          0.00000000	
          1.11200000	         -9.79253645	        293.39289022	         20.28995963	          0.66642607	          0.00000000	          0.06575097	        178.40194222	        476.50749851	         21.86573175	          0.04974104	         -0.02499600	         -0.06769784	          0.00000000	         -0.22874837	          0.00000000	          0.00000000	         -2.02188289	          0.00000000	
          1.11600000	        -22.12799302	        395.04609855	         25.68216172	          0.67181834	          0.00000000	          0.06583001	        170.25414175	        434.56428146	         19.54394578	          0.05065362	         -0.02499516	         -0.06732605	          0.00000000	         -0.56461581	          0.00000000	          0.00000000	         -1.81715300	          0.00000000	
          1.12000000	        -40.26520456	        471.08411806	         27.89077391	          0.67652773	          0.00000000	          0.06685505	        159.48689280	        389.44887262	         17.15151145	          0.05162006	         -0.02499500	         -0.06704185	          0.00000000	         -0.87161842	          0.00000000	          0.00000000	         -1.60377083	          0.00000000	
          1.12400000	        -63.71518106	        528.11409087	         26.07811513	          0.68134112	          0.00000000	          0.06845768	        145.99708606	        342.19251389	         14.75520824	          0.05275715	         -0.02499348	         -0.06683487	          0.00000000	         -1.09146435	          0.00000000	          0.00000000	         -1.38624475	          0.00000000	
          1.12800000	        -90.97663989	        574.79123299	         20.20957435	          0.68731339	          0.00000000	          0.07006665	        129.86523659	        294.34518184	         12.38491054	          0.05418254	         -0.02499228	         -0.06667950	          0.00000000	         -1.15899838	          0.00000000	          0.00000000	         -1.17109123	          0.00000000	
          1.13200000	       -120.11577430	        616.68403444	         11.07584492	          0.69442307	          0.00000000	          0.07143853	        111.53797445	        247.65721331	         10.07407186	          0.05600685	         -0.02499200	         -0.06654546	          0.00000000	         -1.02286169	          0.00000000	          0.00000000	         -0.96563062	          0.00000000	
          1.13600000	       -148.62386161	        655.09974689	          0.05882323	          0.70150663	          0.00000000	          0.07260506	         91.97932413	        203.79891775	          7.90988997	          0.05830480	         -0.02499200	         -0.06641103	          0.00000000	         -0.66554647	          0.00000000	          0.00000000	         -0.77621827	          0.00000000	
          1.14000000	       -173.69876018	        689.24217225	        -11.21112603	          0.70734139	          0.00000000	          0.07355026	         72.58289520	        164.17706732	          6.01424081	          0.06108058	         -0.02499140	         -0.06625411	          0.00000000	         -0.11794298	          0.00000000	          0.00000000	         -0.60703802	          0.00000000	
          1.14400000	       -193.50009796	        718.62827579	        -21.29353236	          0.71166123	          0.00000000	          0.07417414	         54.80878372	        129.71447167	          4.47037620	          0.06422707	         -0.02499044	         -0.06603719	          0.00000000	          0.53660233	          0.00000000	          0.00000000	         -0.46006168	          0.00000000	
          1.14800000	       -207.92180174	        743.97239185	        -29.24769818	          0.71515266	          0.00000000	          0.07443603	         39.74248940	        100.64791373	          3.27534421	          0.06764355	         -0.02499078	         -0.06569097	          0.00000000	          1.17275277	          0.00000000	          0.00000000	         -0.33573754	          0.00000000	
